<svg xmlns="http://www.w3.org/2000/svg" xmlns:xlink="http://www.w3.org/1999/xlink" width="453.318" height="416.214" viewBox="0 0 453.318 416.214">
  <defs>
    <linearGradient id="linear-gradient" x1="0.5" y1="1" x2="0.5" y2="-0.001" gradientUnits="objectBoundingBox">
      <stop offset="0" stop-color="gray" stop-opacity="0.251"/>
      <stop offset="0.54" stop-color="gray" stop-opacity="0.122"/>
      <stop offset="1" stop-color="gray" stop-opacity="0.102"/>
    </linearGradient>
  </defs>
  <g id="Group_11350" data-name="Group 11350" transform="translate(-110.525 -1001.786)">
    <path id="Path_11241" data-name="Path 11241" d="M804.56,309.967H495.977a21.924,21.924,0,0,0-21.88,21.88V637.51a21.9,21.9,0,0,0,21.88,21.88H804.56a21.9,21.9,0,0,0,21.88-21.88V331.847a21.9,21.9,0,0,0-21.88-21.88ZM823.866,637.51a19.329,19.329,0,0,1-19.306,19.306H495.977a19.329,19.329,0,0,1-19.306-19.306V331.847a19.336,19.336,0,0,1,19.306-19.306H804.56a19.329,19.329,0,0,1,19.306,19.306Z" transform="translate(-363.572 691.819)" fill="#3f3d56"/>
    <path id="Path_11242" data-name="Path 11242" d="M772.258,407.05H512.272a10.3,10.3,0,0,1,0-20.593H772.258a10.3,10.3,0,0,1,0,20.593Z" transform="translate(-355.569 713.776)" fill="#ccc"/>
    <path id="Path_11243" data-name="Path 11243" d="M681.746,373.05H569.772a10.3,10.3,0,0,1,0-20.593H681.746a10.3,10.3,0,1,1,0,20.593Z" transform="translate(-339.064 704.016)" fill="#32a0be"/>
    <path id="Path_11244" data-name="Path 11244" d="M623.746,455.05H511.772a10.3,10.3,0,1,1,0-20.593H623.746a10.3,10.3,0,1,1,0,20.593Z" transform="translate(-355.713 727.555)" fill="#ccc"/>
    <path id="Path_11245" data-name="Path 11245" d="M623.746,490.05H511.772a10.3,10.3,0,1,1,0-20.593H623.746a10.3,10.3,0,1,1,0,20.593Z" transform="translate(-355.713 737.602)" fill="#ccc"/>
    <path id="Path_11246" data-name="Path 11246" d="M623.746,525.05H511.772a10.3,10.3,0,1,1,0-20.593H623.746a10.3,10.3,0,1,1,0,20.593Z" transform="translate(-355.713 747.649)" fill="#ccc"/>
    <circle id="Ellipse_44" data-name="Ellipse 44" cx="19.215" cy="19.215" r="19.215" transform="translate(388.472 1153.003)" fill="#ff6300"/>
    <path id="Path_395" data-name="Path 395" d="M704.957,451.34a1.993,1.993,0,0,1-1.2-.4l-.021-.016-4.516-3.454a2.007,2.007,0,0,1,2.442-3.185l2.925,2.243,6.912-9.017a2.006,2.006,0,0,1,2.812-.372h0l-.043.06.044-.06a2.008,2.008,0,0,1,.371,2.813l-8.13,10.6a2.007,2.007,0,0,1-1.6.782Z" transform="translate(-299.175 728.206)" fill="#fff"/>
    <circle id="Ellipse_44-2" data-name="Ellipse 44" cx="19.215" cy="19.215" r="19.215" transform="translate(388.472 1198.05)" fill="#ff6300"/>
    <path id="Path_395-2" data-name="Path 395" d="M704.957,486.34a1.993,1.993,0,0,1-1.2-.4l-.021-.016-4.516-3.454a2.007,2.007,0,1,1,2.442-3.185l2.925,2.243,6.912-9.017a2.006,2.006,0,0,1,2.812-.371h0l-.043.06.044-.06a2.008,2.008,0,0,1,.371,2.813l-8.13,10.6a2.007,2.007,0,0,1-1.6.783Z" transform="translate(-299.175 738.254)" fill="#fff"/>
    <path id="Path_395-3" data-name="Path 395" d="M704.957,521.411a1.993,1.993,0,0,1-1.2-.4l-.021-.016-4.516-3.454a2.007,2.007,0,0,1,2.442-3.185l2.925,2.243,6.912-9.017a2.006,2.006,0,0,1,2.812-.371h0l-.043.06.044-.06a2.008,2.008,0,0,1,.371,2.813l-8.13,10.6a2.007,2.007,0,0,1-1.6.782Z" transform="translate(-299.175 748.321)" fill="#fff"/>
    <path id="Path_9618" data-name="Path 9618" d="M415.35,438.25l6.779,1.368,23.1,34.172-10.167,1.368Z" transform="translate(-49.579 793.771)" fill="#2f2e41"/>
    <path id="Path_9619" data-name="Path 9619" d="M414.49,645.691a133.028,133.028,0,0,0,6.778,17.63,167.882,167.882,0,0,0,22.543-6.437,71.067,71.067,0,0,0-4.7-6.219,23.189,23.189,0,0,0-6.374-4.882,17.546,17.546,0,0,0-7.742,0C421.517,645.691,418,645.752,414.49,645.691Z" transform="translate(-213.084 724.946)" fill="#fbbebe"/>
    <path id="Path_9620" data-name="Path 9620" d="M472.178,661.447a14.056,14.056,0,0,1-7.711-8.769A28.234,28.234,0,0,0,458.59,642.2a3.358,3.358,0,0,0-2.612,1.959c-.56.995-.9,2.114-1.523,3.109-1.244,1.772-3.421,2.643-4.975,4.135s-2.487,3.824-4.166,5.348a16.54,16.54,0,0,1-7.867,3.109,50.989,50.989,0,0,0-12.438,4.57,21.449,21.449,0,0,1-4.571,2.052,18.114,18.114,0,0,1-5.348,0l-12.251-.871a9.582,9.582,0,0,0-3.11,0,5.938,5.938,0,0,0-3.887,6.219,9.328,9.328,0,0,0,3.887,6.592,25.784,25.784,0,0,0,6.965,3.544A204.9,204.9,0,0,0,439.53,691.3v2.425a56.838,56.838,0,0,0,25.03,5.814,4.222,4.222,0,0,0,1.866-.31,4.1,4.1,0,0,0,1.555-2.425,97,97,0,0,0,5.13-26.617,21.2,21.2,0,0,0-.529-6.871c-.684-2.208,1.617-1.275-.5-2.146" transform="translate(-252.481 718.3)" fill="#2f2e41"/>
    <path id="Path_9623" data-name="Path 9623" d="M436.92,656.257q8.519,2.892,17.195,5.348c3.109-5.317,9.328-9.017,10.665-15.111a1.428,1.428,0,0,0,0-.809,1.5,1.5,0,0,0-.653-.59,32.588,32.588,0,0,0-13.495-3.949c-3.731-.217-5.441,3.669-7.12,6.405C442.859,648.764,438.444,656.848,436.92,656.257Z" transform="translate(-165.771 716.058)" fill="#fbbebe"/>
    <path id="Path_9624" data-name="Path 9624" d="M477.579,650.632a12.437,12.437,0,0,1-8.364-5.5c-.777-1.4-1.648-3.3-3.265-3.109s-2.146,1.865-2.487,3.327a93.3,93.3,0,0,1-4.7,16.138A30.283,30.283,0,0,1,448.723,674.7c-2.114,1.461-4.446,2.55-6.53,4.1a44.889,44.889,0,0,1-5.5,4.167,32.619,32.619,0,0,1-4.229,1.554,29.3,29.3,0,0,0-6.032,3.11,11.968,11.968,0,0,0-4.135,3.949,5.689,5.689,0,0,0-.311,5.5,5.878,5.878,0,0,0,4.011,2.737,16.9,16.9,0,0,0,5.006,0c6.623-.467,13.246-1.057,19.869-1.648a57.342,57.342,0,0,0,8.3-1.151l4.322-1.182a34.427,34.427,0,0,1,7.556-1.119,5.87,5.87,0,0,1,2.207.218c1.524.5,2.612,2.021,4.2,2.332a7.03,7.03,0,0,0,3.11-.4,68.633,68.633,0,0,1,14.707-1.523c2.177,0,4.726-.56,5.721-2.488,1.244-2.425-.809-5.13-1.648-7.742a24.859,24.859,0,0,1-.684-5.068,30.9,30.9,0,0,0-3.638-12.064c-1.679-3.11-3.98-6.53-2.8-9.826a9.326,9.326,0,0,0,1.119-3.39C492.876,649.419,480.626,651.316,477.579,650.632Z" transform="translate(-198.473 717.89)" fill="#2f2e41"/>
    <path id="Path_9625" data-name="Path 9625" d="M499.177,636.464A28.361,28.361,0,0,1,484.687,622.1c-.591-1.368-1.088-2.83-1.679-4.2a31.905,31.905,0,0,0-8.644-12.033,4.258,4.258,0,0,0-3.109-1.338,3.39,3.39,0,0,0-2.332,2.519,9.609,9.609,0,0,0-.249,3.887,69.188,69.188,0,0,0,1.555,9.079L472,628.037a17.587,17.587,0,0,0,1.088,3.576,12.428,12.428,0,0,0,2.954,3.514c1.617,1.493,3.265,2.923,4.913,4.353a16.915,16.915,0,0,0,3.11,2.146,18.068,18.068,0,0,0,5.5,1.617,46.834,46.834,0,0,1,20.646,7.96v-5.97a7.9,7.9,0,0,0-1.554-4.322A27.565,27.565,0,0,0,499.177,636.464Z" transform="translate(-98.987 638.84)" fill="#fbbebe"/>
    <path id="Path_9626" data-name="Path 9626" d="M499.177,636.464A28.361,28.361,0,0,1,484.687,622.1c-.591-1.368-1.088-2.83-1.679-4.2a31.905,31.905,0,0,0-8.644-12.033,4.258,4.258,0,0,0-3.109-1.338,3.39,3.39,0,0,0-2.332,2.519,9.609,9.609,0,0,0-.249,3.887,69.188,69.188,0,0,0,1.555,9.079L472,628.037a17.587,17.587,0,0,0,1.088,3.576,12.428,12.428,0,0,0,2.954,3.514c1.617,1.493,3.265,2.923,4.913,4.353a16.915,16.915,0,0,0,3.11,2.146,18.068,18.068,0,0,0,5.5,1.617,46.834,46.834,0,0,1,20.646,7.96v-5.97a7.9,7.9,0,0,0-1.554-4.322A27.565,27.565,0,0,0,499.177,636.464Z" transform="translate(-98.987 638.84)" opacity="0.1"/>
    <path id="Path_9630" data-name="Path 9630" d="M509.8,607.021a13.092,13.092,0,0,1,.747,9.826,39.864,39.864,0,0,1-4.384,9.048,43.091,43.091,0,0,1-5.69,8.084c10.51.5,20.677-3.607,29.912-8.582,7.462-4.011,14.894-8.955,18.874-16.448a8.707,8.707,0,0,1-6.965-1.306,24.877,24.877,0,0,1-5.317-4.944l-5.255-5.908a23.671,23.671,0,0,1-3.11-4.26,11.753,11.753,0,0,1-1.4-6.871,40.023,40.023,0,0,1-6.965,5.783c-3.762,2.457-7.9,4.229-11.691,6.654-1.306.871-4.291,2.239-3.513,3.98S508.741,605.156,509.8,607.021Z" transform="translate(-31.721 599.036)" fill="#fbbebe"/>
    <path id="Path_9631" data-name="Path 9631" d="M509.8,607.021a13.092,13.092,0,0,1,.747,9.826,39.864,39.864,0,0,1-4.384,9.048,43.091,43.091,0,0,1-5.69,8.084c10.51.5,20.677-3.607,29.912-8.582,7.462-4.011,14.894-8.955,18.874-16.448a8.707,8.707,0,0,1-6.965-1.306,24.877,24.877,0,0,1-5.317-4.944l-5.255-5.908a23.671,23.671,0,0,1-3.11-4.26,11.753,11.753,0,0,1-1.4-6.871,40.023,40.023,0,0,1-6.965,5.783c-3.762,2.457-7.9,4.229-11.691,6.654-1.306.871-4.291,2.239-3.513,3.98S508.741,605.156,509.8,607.021Z" transform="translate(-31.721 599.036)" opacity="0.1"/>
    <path id="Path_9634" data-name="Path 9634" d="M537.087,590.756a14.116,14.116,0,0,0-7.369,10.105,51.122,51.122,0,0,1-3.731,12.438c-5.037,8.768-17.879,11.318-21.455,20.8a38.257,38.257,0,0,0-1.43,9.795c-.622,6.81-2.86,13.37-3.544,20.148a89.792,89.792,0,0,0,.373,15.827l4.509,53.543a71.518,71.518,0,0,1-1.337,23.569,22.7,22.7,0,0,0,13.495-2.239c4.2-1.928,8.053-4.571,12.127-6.81,6.965-3.855,14.676-6.56,20.8-11.691a12.726,12.726,0,0,0,2.8-3.109,26.891,26.891,0,0,0,1.865-7.027,37.984,37.984,0,0,1,2.021-5.535,162.906,162.906,0,0,0,5.846-16.542,95,95,0,0,0,2.674-11.318c.5-3.11.777-6.219,1.026-9.328a54.723,54.723,0,0,1,2.861-14.147,113.96,113.96,0,0,0,6.561-33.954,17.738,17.738,0,0,0-.342-4.975,26.6,26.6,0,0,0-2.736-5.691c-1.866-3.513-3.11-7.369-4.727-10.944A53.821,53.821,0,0,0,549,594.363C545.389,591.907,541.161,589.295,537.087,590.756Z" transform="translate(-34.041 608.896)" fill="#2f2e41"/>
    <g id="Group_11349" data-name="Group 11349" transform="translate(143.677 1104.381)">
      <path id="Path_9617" data-name="Path 9617" d="M812.814,647.141a30.5,30.5,0,0,0-12.158-24.626,35.757,35.757,0,0,0-29.881-35.073,35.7,35.7,0,0,0-23.787-26.586h0a30.375,30.375,0,0,0-4.415-1.026h-5.255a35.011,35.011,0,0,0-33.83,29.912c-10.914-2.519-20.895.746-22.729,7.649a9.328,9.328,0,0,0,.311,5.535c1.866,5.348,7.929,10.478,16.045,13l1.057.311,1.586.4h.342a27.5,27.5,0,0,0-2.612,11.785,27.175,27.175,0,0,0,14.645,24.252l-.715.436a9.7,9.7,0,0,0-2.363,3.3,49.318,49.318,0,0,0-4.571,11.007c-.777,3.3-.9,6.716-1.866,9.981-1.8,6-6.405,11.069-6.934,17.319-.249,2.8.217,6.218-1.773,8.022a9.641,9.641,0,0,1-1.586,1.12,12.836,12.836,0,0,0-3.451,3.638,12.061,12.061,0,0,1-2.425,3.482c-1.8,1.338-4.757,1.213-5.628,3.3s1.4,4.54.871,6.809-2.456,2.705-3.855,3.98a13.834,13.834,0,0,0-3.327,6.219,20.4,20.4,0,0,1-16.791-4.29,31.368,31.368,0,0,1,1.741,6.218,27.234,27.234,0,0,0-9.048-4.54,28.571,28.571,0,0,1-9.639-7.152l5.162-.715-22.792-34.794-6.747-1.4,6.032,11.6a3.7,3.7,0,0,0-2.052,2.456,10.54,10.54,0,0,0-.218,3.949,70.671,70.671,0,0,0,1.555,9.328l1.741,8.146c.156.746.342,1.524.56,2.27a21.429,21.429,0,0,0-6.747.747,58.739,58.739,0,0,0-14.023-3.328,7.783,7.783,0,0,0-3.11,0,8.052,8.052,0,0,0-2.954,2.394,95.633,95.633,0,0,0-10.416,14.676c-12.438,21.33-28.637,39.955-43.966,59.234-10.572,4.291-21.237,8.364-31.9,12.437l-22.947,8.768a34.794,34.794,0,0,1-14.241,3.109c-2.177,0-4.882-.466-6.219,1.4a13.1,13.1,0,0,0-1.4,3.11l-2.364.248h0a27.172,27.172,0,0,0-5.5-10.137,3.482,3.482,0,0,0-2.581,1.99c-.56,1.026-.9,2.146-1.554,3.11-1.213,1.8-3.358,2.674-4.882,4.2s-2.487,3.887-4.167,5.441a16.477,16.477,0,0,1-7.8,3.109,49.276,49.276,0,0,0-12.22,4.633,19.666,19.666,0,0,1-4.508,2.083,16.934,16.934,0,0,1-5.317.187l-12.126-.9a9.589,9.589,0,0,0-3.265.156,6.219,6.219,0,0,0-3.856,6.219,9.794,9.794,0,0,0,3.856,6.685,24.682,24.682,0,0,0,6.9,3.576,202.627,202.627,0,0,0,32.337,9.577v2.456a55.187,55.187,0,0,0,24.875,5.908,3.864,3.864,0,0,0,1.866-.342,4.1,4.1,0,0,0,1.554-2.425,100.023,100.023,0,0,0,4.851-23.818h0a12.434,12.434,0,0,0,4.384-1.119c4.167-1.151,8.333,1.71,12.655,2.176,5.317.591,10.23-2.519,15.267-4.415l2.177-.715a23.885,23.885,0,0,1-5.037,4.819c-2.083,1.493-4.415,2.612-6.437,4.167A44.263,44.263,0,0,1,489.72,856a34.2,34.2,0,0,1-4.2,1.617,27.7,27.7,0,0,0-6,3.109,12.155,12.155,0,0,0-4.073,3.98,5.97,5.97,0,0,0-.342,5.6,5.906,5.906,0,0,0,4.011,2.8,16.483,16.483,0,0,0,4.944,0c6.592-.5,13.152-1.088,19.713-1.679a52.549,52.549,0,0,0,8.24-1.182c1.43-.342,2.86-.809,4.291-1.213a38.309,38.309,0,0,1,7.494-1.119,6.207,6.207,0,0,1,2.177.217c1.524.5,2.612,2.052,4.167,2.363a6.22,6.22,0,0,0,3.109-.4,69.366,69.366,0,0,1,14.583-1.555c2.146,0,4.664-.528,5.659-2.519s-.808-5.192-1.617-7.835a23.975,23.975,0,0,1-.684-5.162,32.315,32.315,0,0,0-3.607-12.251,31.974,31.974,0,0,1-2.705-5.6,141.4,141.4,0,0,0,26.834-13.62,47.983,47.983,0,0,1,15.3-7.369,41.609,41.609,0,0,1,19.216,2.239,436.989,436.989,0,0,1,44.06,15.361c6.871,2.829,13.712,5.814,20.8,7.96a32.427,32.427,0,0,0,7.4,7.182A34.2,34.2,0,0,0,694.5,851.3a209.759,209.759,0,0,0,22.543.84,38.021,38.021,0,0,0,16.791-3.109,17.238,17.238,0,0,0,3.514-2.332,13.929,13.929,0,0,0,11.069-4.074,26.829,26.829,0,0,0,8.426-13.308c1.834-7.089.435-15.547,4.788-21.206,1.151-1.554,2.674-2.8,3.824-4.353a12.252,12.252,0,0,0,1.99-7.182,1.436,1.436,0,0,1,.187-.28,26.348,26.348,0,0,0,1.866-7.152,40.915,40.915,0,0,1,2.021-5.659,174.776,174.776,0,0,0,5.784-16.759,97.935,97.935,0,0,0,2.674-11.5c.466-3.11.746-6.219.995-9.328a57.954,57.954,0,0,1,2.829-14.4,117.16,117.16,0,0,0,6.53-34.451v-.684a23.1,23.1,0,0,0,20.459-23.507,24.532,24.532,0,0,0-2.145-10.043A31.091,31.091,0,0,0,812.814,647.141ZM701.561,782.305c.342,1.213.746,2.394,1.15,3.576-1.834-1.773-3.607-3.607-5.441-5.411.715.249,1.462.466,2.146.747a11.624,11.624,0,0,1,2.052,1.087Zm-8.8-5.97c-10.758-9.328-23.2-16.573-34.2-25.621,6,2.954,11.846,6.405,17.63,9.7q10.292,5.877,20.864,11.287a17.081,17.081,0,0,1-4.384,4.633Zm4.571-23.506.529-.529V756l-2.891-1a25.785,25.785,0,0,0,2.27-2.176Zm-94.618,25.186a89.03,89.03,0,0,0,11.442-16.324c4.26,7.431,11.194,12.81,17.071,19.06C621.743,779.537,612.229,778.512,602.714,778.014Z" transform="translate(-395.924 -559.83)" fill="url(#linear-gradient)"/>
      <path id="Path_9621" data-name="Path 9621" d="M659.527,640.114c-36.318,2.177-72.2-8.457-108.579-9.577a53.031,53.031,0,0,0-13.495.84,67.977,67.977,0,0,0-13.37,5.192c-19.5,9.079-39.676,16.6-59.824,24.1l-23.165,8.613a35.069,35.069,0,0,1-14.334,3.109c-2.208,0-4.913-.466-6.218,1.368-3.763,5.6-1.99,13.774.5,20.055.809,2.021,2.177,4.229,4.353,4.446a12.646,12.646,0,0,0,4.415-1.119c4.2-1.119,8.4,1.71,12.748,2.176,5.348.56,10.323-2.487,15.391-4.353,8.4-3.11,17.537-3.11,26.367-4.477,14.77-2.456,28.482-9.328,41.293-17.133A48.2,48.2,0,0,1,541,666.077a42.606,42.606,0,0,1,19.372,2.207A444.644,444.644,0,0,1,604.8,683.4a206.974,206.974,0,0,0,23.2,8.488,83.95,83.95,0,0,0,52.02-3.109c5.814-2.3,12.126-6.218,12.437-12.624.218-3.576-2.581-6.716-4.415-9.794-1.181-1.959-2.394-3.918-3.669-5.815C678.152,651.526,670.565,639.461,659.527,640.114Z" transform="translate(-348.573 -410.923)" fill="#2f2e41"/>
      <path id="Path_9622" data-name="Path 9622" d="M659.527,640.114c-36.318,2.177-72.2-8.457-108.579-9.577a53.031,53.031,0,0,0-13.495.84,67.977,67.977,0,0,0-13.37,5.192c-19.5,9.079-39.676,16.6-59.824,24.1l-23.165,8.613a35.069,35.069,0,0,1-14.334,3.109c-2.208,0-4.913-.466-6.218,1.368-3.763,5.6-1.99,13.774.5,20.055.809,2.021,2.177,4.229,4.353,4.446a12.646,12.646,0,0,0,4.415-1.119c4.2-1.119,8.4,1.71,12.748,2.176,5.348.56,10.323-2.487,15.391-4.353,8.4-3.11,17.537-3.11,26.367-4.477,14.77-2.456,28.482-9.328,41.293-17.133A48.2,48.2,0,0,1,541,666.077a42.606,42.606,0,0,1,19.372,2.207A444.644,444.644,0,0,1,604.8,683.4a206.974,206.974,0,0,0,23.2,8.488,83.95,83.95,0,0,0,52.02-3.109c5.814-2.3,12.126-6.218,12.437-12.624.218-3.576-2.581-6.716-4.415-9.794-1.181-1.959-2.394-3.918-3.669-5.815C678.152,651.526,670.565,639.461,659.527,640.114Z" transform="translate(-348.573 -410.923)" opacity="0.1"/>
      <path id="Path_9627" data-name="Path 9627" d="M541.889,590.659a9.548,9.548,0,0,0-6.965.995,9.676,9.676,0,0,0-2.394,3.265,47.436,47.436,0,0,0-4.6,10.82c-.777,3.11-.9,6.623-1.9,9.825-1.8,5.908-6.437,10.914-6.965,17.07-.249,2.767.218,6-1.8,7.867a11.39,11.39,0,0,1-1.586,1.15,11.946,11.946,0,0,0-3.482,3.577,11.721,11.721,0,0,1-2.457,3.389c-1.8,1.337-4.788,1.213-5.659,3.11s1.4,4.477.871,6.716-2.488,2.674-3.887,3.918a13.578,13.578,0,0,0-3.358,6.218,20.742,20.742,0,0,1-16.915-4.2,53.852,53.852,0,0,1,2.643,19.34,7.9,7.9,0,0,1-1.555,5.97,107.7,107.7,0,0,1,20.74,3.606,14.305,14.305,0,0,0,9.048,0,15.117,15.117,0,0,0,4.167-3.3c3.731-3.794,7.649-7.929,8.551-13.184a77.5,77.5,0,0,0,.156-8.923,50.314,50.314,0,0,1,2.27-10.852,129.091,129.091,0,0,0,3.949-22.325c.4-4.664,4.446-8.4,6.56-12.437,3.98-7.867,8.085-16.045,8.364-24.875C545.807,594.546,544.812,590.97,541.889,590.659Z" transform="translate(-216.909 -495.357)" fill="#2f2e41"/>
      <path id="Path_9628" data-name="Path 9628" d="M541.889,590.659a9.548,9.548,0,0,0-6.965.995,9.676,9.676,0,0,0-2.394,3.265,47.436,47.436,0,0,0-4.6,10.82c-.777,3.11-.9,6.623-1.9,9.825-1.8,5.908-6.437,10.914-6.965,17.07-.249,2.767.218,6-1.8,7.867a11.39,11.39,0,0,1-1.586,1.15,11.946,11.946,0,0,0-3.482,3.577,11.721,11.721,0,0,1-2.457,3.389c-1.8,1.337-4.788,1.213-5.659,3.11s1.4,4.477.871,6.716-2.488,2.674-3.887,3.918a13.578,13.578,0,0,0-3.358,6.218,20.742,20.742,0,0,1-16.915-4.2,53.852,53.852,0,0,1,2.643,19.34,7.9,7.9,0,0,1-1.555,5.97,107.7,107.7,0,0,1,20.74,3.606,14.305,14.305,0,0,0,9.048,0,15.117,15.117,0,0,0,4.167-3.3c3.731-3.794,7.649-7.929,8.551-13.184a77.5,77.5,0,0,0,.156-8.923,50.314,50.314,0,0,1,2.27-10.852,129.091,129.091,0,0,0,3.949-22.325c.4-4.664,4.446-8.4,6.56-12.437,3.98-7.867,8.085-16.045,8.364-24.875C545.807,594.546,544.812,590.97,541.889,590.659Z" transform="translate(-216.909 -495.357)" opacity="0.1"/>
      <path id="Path_9629" data-name="Path 9629" d="M620.808,686.744c-7.556-3.607-13.091-10.292-19.216-16.045-11.66-10.976-25.932-18.656-38.214-29.01-8.147-6.809-15.547-14.738-24.346-20.459a60.843,60.843,0,0,0-26.088-9.111,6.934,6.934,0,0,0-3.109,0,7.151,7.151,0,0,0-2.954,2.332A93.975,93.975,0,0,0,496.34,628.91c-15.546,26.43-37.654,48.63-55.968,73.194a4.664,4.664,0,0,0-.9,1.742,4.324,4.324,0,0,0,.684,2.705l3.731,7.275c2.083,4.1,5.441,8.862,9.919,8.054A10.853,10.853,0,0,0,459,718.554l16.729-16.013,17.536-16.76c10.261-9.794,20.709-19.838,27.425-32.4,5.224,9.079,14.521,15.018,20.864,23.32,2.425,3.11,4.415,6.623,6.592,9.981,3.451,5.348,7.4,10.385,11.318,15.547l20.118,25.652a38.489,38.489,0,0,0,9.328,9.329,35.611,35.611,0,0,0,16.138,4.322,213.526,213.526,0,0,0,22.729.809,39.186,39.186,0,0,0,16.946-3.11,15.361,15.361,0,0,0,9.173-13.65A20.027,20.027,0,0,0,651,717.092C643.724,704.126,634.333,693.181,620.808,686.744Z" transform="translate(-304.099 -449.904)" fill="#2f2e41"/>
      <path id="Path_9632" data-name="Path 9632" d="M531.586,593.607a8.862,8.862,0,0,0,0,10.261c.311.373,1.43,2.705,1.9,2.736a1.708,1.708,0,0,0,1.181-.622,77.972,77.972,0,0,0,6.654-7.929,14.8,14.8,0,0,1,8.457-5.534,18.282,18.282,0,0,1,11.66,3.638,11.06,11.06,0,0,1,4.011,3.11,10.853,10.853,0,0,1,1.306,4.446,214.144,214.144,0,0,1,1.182,28.264,111.385,111.385,0,0,1-1.337,20.366c-.684,3.451-1.679,6.841-2.145,10.354a66.05,66.05,0,0,0-.436,9.328v13a34.2,34.2,0,0,0,.5,7.121c.622,2.829,1.959,5.472,2.861,8.24a53.909,53.909,0,0,1,1.9,9.732l1.772,13.433c.56,4.229,1,8.861-1.586,12.437-1.15,1.524-2.674,2.767-3.855,4.291-4.384,5.721-3.109,13.9-4.82,20.895a26.057,26.057,0,0,1-8.52,13.06,14.084,14.084,0,0,1-11.225,4.011c-5.472-1.026-8.737-6.716-10.23-12.1s-2.021-11.225-5.255-15.765a41.817,41.817,0,0,0-10.385-8.675,17.941,17.941,0,0,1-8.115-10.541c-.342-1.959,0-3.98-.342-5.97a14.086,14.086,0,0,0-8.675-11.412c-2.8-1.088-6.219-1.492-7.836-4.042a18.874,18.874,0,0,0,8.178-10.976,56.379,56.379,0,0,0,1.99-13.868l.933-15.547c.435-7,.622-13.9,3.7-20.179,1.368-2.8,3.11-5.441,4.509-8.209a89.087,89.087,0,0,0,4.819-12.034c2.239-6.405,4.478-12.81,6.468-19.278a36.338,36.338,0,0,1,3.545-8.986C526.02,597.743,528.445,594.229,531.586,593.607Z" transform="translate(-197.065 -490.905)" fill="#97e5f6"/>
      <path id="Path_9633" data-name="Path 9633" d="M492.661,697.009H496.8l.871-6.219a12.953,12.953,0,0,1,.87-3.638,21.772,21.772,0,0,1,2.394-3.482c4.042-5.753,3.763-13.37,4.757-20.366a103.631,103.631,0,0,1,9.079-26.616l8.022-17.879a24.662,24.662,0,0,0,1.741-4.57,27.4,27.4,0,0,0,.5-5.286c0-2.767.871-12.841.964-15.546,0-1.026-2.27-.467-2.736-1.368-.995-1.99-2.363,3.39-4.26,4.571a10.449,10.449,0,0,0-3.7,5.41c-1.741,4.477-2.8,9.328-4.415,13.774a28.145,28.145,0,0,1-7.494,12.189c-1.648,1.43-3.545,2.581-5.1,4.135-4.975,4.913-5.472,12.718-5.628,19.745C492.536,656.152,491.728,697.009,492.661,697.009Z" transform="translate(-192.807 -492.817)" fill="#2f2e41"/>
      <path id="Path_9635" data-name="Path 9635" d="M514.316,630.818a32.42,32.42,0,0,1-8.551-6.5c-1.119-1.306-2.052-2.768-3.109-4.074a21.177,21.177,0,0,0-10.758-6.218,52.575,52.575,0,0,0-12.437-1.213,22.574,22.574,0,0,0-8.3.995,8.458,8.458,0,0,0-5.5,5.908,9.794,9.794,0,0,0,4.2,8.706,19.773,19.773,0,0,0,8.364,4.042,67.054,67.054,0,0,0,7.555.9c14.863,1.554,28.14,9.639,41.168,17.008q17.164,9.763,35.011,18.159a72.75,72.75,0,0,0,.591-10.728c0-2.674-.217-6.778-2.736-8.364a54.891,54.891,0,0,0-11.132-3.327,175.245,175.245,0,0,1-22.419-9.08A111.453,111.453,0,0,1,514.316,630.818Z" transform="translate(-248.881 -448.173)" fill="#fbbebe"/>
      <ellipse id="Ellipse_637" data-name="Ellipse 637" cx="26.492" cy="26.647" rx="26.492" ry="26.647" transform="translate(303.957 45.335)" fill="#fbbebe"/>
      <path id="Path_9636" data-name="Path 9636" d="M558.242,602.471a42.486,42.486,0,0,0-5.131,9.608c-3.109,6.716-8.4,12.437-10.976,19.558s-2.612,16.262-7.929,22.076a7.734,7.734,0,0,0-2.332,3.358,16.034,16.034,0,0,1-.249,2.426c-.777,2.114-4.229,2.207-4.881,4.384-.187.622,0,1.306-.311,1.928-.529,1.4-2.394,1.617-3.607,2.456-2.581,1.741-2.052,5.784-3.887,8.3a7,7,0,0,1-6.623,2.332,23.318,23.318,0,0,1-6.871-2.581,6.633,6.633,0,0,0-2.488-.777,5.13,5.13,0,0,0-2.86,1,17.63,17.63,0,0,0-7.152,15.08,49.239,49.239,0,0,0,4.1,16.884,6.772,6.772,0,0,0,1.337,2.519,5.938,5.938,0,0,0,6.592.5,31.124,31.124,0,0,1,6.436-2.891c4.1-.746,8.115,2.083,12.282,1.834a17.069,17.069,0,0,0,8.271-3.638,45.7,45.7,0,0,0,11.132-9.328c1.8-2.394,3.109-5.1,4.726-7.649a98.078,98.078,0,0,1,6.685-8.924l15.3-18.656a42.959,42.959,0,0,0,4.1-5.659,39.873,39.873,0,0,0,3.109-8.55,65.475,65.475,0,0,0,3.109-15.2,58.4,58.4,0,0,0-1.12-12.748,45.05,45.05,0,0,0-3.109-12.158C572.576,600.917,564.491,595.2,558.242,602.471Z" transform="translate(-191.315 -477.008)" fill="#2f2e41"/>
      <path id="Path_9637" data-name="Path 9637" d="M621.534,647.65A29.85,29.85,0,0,0,609.282,623.4a35.477,35.477,0,0,0-30.13-34.545,34.421,34.421,0,0,0-67.816,1.834c-11.007-2.487-21.081.747-22.916,7.525s5.939,15.547,17.537,18.656a32.672,32.672,0,0,0,11.255,1.12,34.453,34.453,0,0,0,23.694,14.77,35.353,35.353,0,0,0,25.87,26.678,29.7,29.7,0,0,0,7.991,11.039v2.58a22.418,22.418,0,1,0,44.837,0,23.932,23.932,0,0,0-2.146-9.919A29.975,29.975,0,0,0,621.534,647.65Z" transform="translate(-201.371 -556.95)" fill="#2e2842"/>
      <path id="Path_9638" data-name="Path 9638" d="M495.905,599.653c1.835-6.778,11.909-10.012,22.916-7.525a35.012,35.012,0,0,1,34.2-29.477h2.27a33.7,33.7,0,0,0-9.764-1.461,35.012,35.012,0,0,0-34.2,29.477c-11.007-2.488-21.081.746-22.916,7.525s5.939,15.546,17.536,18.656A34.185,34.185,0,0,0,512.6,618C501.5,614.671,494.071,606.586,495.905,599.653Z" transform="translate(-201.39 -556.961)" opacity="0.1"/>
    </g>
    <path id="Path_9639" data-name="Path 9639" d="M561.929,635.052a23.307,23.307,0,0,1,0-2.549,29.04,29.04,0,0,1-7.991-11.039,35.259,35.259,0,0,1-25.87-26.709,34.358,34.358,0,0,1-23.724-14.739,29.856,29.856,0,0,1-6.623-.186,34.546,34.546,0,0,0,22.854,13.588,35.353,35.353,0,0,0,25.87,26.678,29.7,29.7,0,0,0,7.991,11.038v2.581a22.824,22.824,0,0,0,22.294,23.2A23.2,23.2,0,0,1,561.929,635.052Z" transform="translate(-37.523 586.738)" opacity="0.1"/>
  </g>
</svg>
